<!DOCTYPE svg PUBLIC "-//W3C//DTD SVG 1.1//EN" "http://www.w3.org/Graphics/SVG/1.1/DTD/svg11.dtd">
<!-- Uploaded to: SVG Repo, www.svgrepo.com, Transformed by: SVG Repo Mixer Tools -->
<svg height="800px" width="800px" version="1.1" id="_x34_" xmlns="http://www.w3.org/2000/svg" xmlns:xlink="http://www.w3.org/1999/xlink" viewBox="0 0 512 512" xml:space="preserve" fill="#000000">
<g id="SVGRepo_bgCarrier" stroke-width="0"/>
<g id="SVGRepo_tracerCarrier" stroke-linecap="round" stroke-linejoin="round"/>
<g id="SVGRepo_iconCarrier"> <g> <path style="fill:#C9AE91;" d="M445.747,324.715c7.417-12.176,11.701-26.479,11.701-41.773c0-41.4-31.308-75.49-71.544-79.896 c7.144-12.003,11.256-26.025,11.256-41.012c0-44.389-35.995-80.384-80.398-80.384h-28.808c-7.202-5.01-53.115-38.884-23.187-68.266 c8.812-8.64-13.038-20.873-33.307-7.36c-11.428,7.618-41.802,30.417-32.847,75.626h-3.392c-44.39,0-80.388,35.994-80.388,80.384 c0,14.986,4.115,29.008,11.248,41.012c-40.228,4.406-71.533,38.496-71.533,79.896c0,15.295,4.273,29.598,11.698,41.773 C28.595,331.4,0,364.275,0,403.841c0,44.39,35.995,80.384,80.391,80.384h351.211c44.404,0,80.398-35.995,80.398-80.384 C512,364.275,483.394,331.4,445.747,324.715z"/> <g> <path style="fill:#C1A17B;" d="M445.747,324.715c7.417-12.176,11.701-26.479,11.701-41.773c0-41.4-31.308-75.49-71.544-79.896 c7.144-12.003,11.256-26.025,11.256-41.012c0-44.389-35.995-80.384-80.398-80.384h-28.808 c-2.717-1.883-10.896-7.863-18.472-16.143v418.718h162.12c44.404,0,80.398-35.995,80.398-80.384 C512,364.275,483.394,331.4,445.747,324.715z"/> </g> </g> </g>
</svg>